<svg width="421" height="420" viewBox="0 0 598 597" fill="none" xmlns="http://www.w3.org/2000/svg">
<path d="M296.368 284.135C298.068 278.349 301.468 271.54 303.869 264.029C305.602 258.608 307.96 252.422 310.515 246.124C313.145 239.641 315.128 227.559 317.176 213.239C318.441 204.388 318.21 198.15 318.722 186.953C319.696 165.64 317.882 148.999 316.177 143.546C313.211 134.058 308.676 123.061 306.275 117.414C304.134 112.378 297.433 107.025 292.288 103.068C288.712 100.317 283.425 99.1405 277.957 97.0925C272.796 95.1596 267.041 95.0445 257.492 95.0343C251.512 95.0279 244.534 103.523 238.702 112.237C230.077 125.126 231.181 135.636 230.664 143.136C229.728 156.714 231.16 179.995 232.026 184.961C233.071 190.959 235.256 197.075 237.821 204.576C239.532 209.576 242.772 213.459 244.308 217.56C245.944 221.928 248.568 228.45 250.452 234.62C252.674 242.817 253.698 247.599 254.21 253.533C254.384 258.115 254.384 265.887 253.36 274.919" stroke="#5AB2F0" stroke-width="6" stroke-linecap="round"/>
<path d="M295.344 280.039C299.747 280.039 308.636 280.714 314.943 281.4C324.01 282.387 333.191 288.21 338.336 291.123C339.339 291.691 340.379 291.978 341.408 291.814C346.827 290.952 349.267 282.455 352.334 276.818C356.841 268.535 359.835 250.773 361.217 242.852C363.629 229.035 364.279 205.676 365.825 196.614C367.063 189.359 367.023 181.756 367.873 175.622C369.283 165.446 369.071 159.924 370.771 154.108C372.893 146.847 373.167 137.048 376.905 123.762C379.081 116.027 382.363 111.449 387.314 106.487C392.342 101.448 403.519 101.188 415.617 101.009C421.814 100.917 431.125 110.67 438.508 119.579C448.187 131.258 449.619 137.683 453.704 147.898C458.36 159.537 457.462 172.458 458.328 182.386C458.656 186.158 459.183 196.665 458.676 211.667C458.052 230.133 448.267 241.782 445.031 247.419C441.493 253.584 434.996 262.569 430.183 268.928C425.149 275.579 416.564 284.769 411.07 289.244C407.249 292.357 402.884 294.026 398.614 295.562C393.657 298.122 389.572 300.17 385.64 303.575C384.779 304.604 384.104 305.618 382.383 307.686" stroke="#5AB2F0" stroke-width="6" stroke-linecap="round"/>
<path d="M254.385 277.991C249.643 277.991 240.069 278.667 234.268 281.053C229.595 282.975 225.733 284.811 221.463 287.366C214.762 291.375 205.622 298.778 198.946 305.608C189.052 315.729 185.122 321.306 180.335 329.493C171.24 345.046 172.465 359.542 171.615 365.179C170.67 371.452 170.417 389.79 171.605 403.404C172.051 408.514 175.865 412.789 185.562 422.845C194.983 430.555 199.069 433.965 202.647 436.351C204.199 437.385 205.213 438.061 207.281 439.782" stroke="#5AB2F0" stroke-width="6" stroke-linecap="round"/>
<path d="M387.504 302.567C389.541 304.267 394.979 309.018 399.945 315.003C404.821 320.879 407.615 329.477 410.026 336.676C412.242 343.29 412.079 348.278 412.929 353.234C413.532 356.75 413.441 360.238 413.953 370.058C415.204 394.039 413.789 411.437 412.94 414.33C410.659 422.093 408.332 429.521 405.946 433.791C402.874 439.288 397.088 443.857 391.789 446.939C387.514 449.673 383.428 451.721 379.327 453.088C378.298 453.431 377.284 453.769 376.24 454.117" stroke="#5AB2F0" stroke-width="6" stroke-linecap="round"/>
<path d="M238.001 300.519C238.677 300.519 240.039 301.194 241.068 301.88C240.069 301.215 238.011 300.181 236.982 299.669C236.967 299.495 237.98 299.495 240.049 300.519" stroke="#5AB2F0" stroke-width="6" stroke-linecap="round"/>
<path d="M360.88 329.19L359.856 328.166" stroke="#5AB2F0" stroke-width="6" stroke-linecap="round"/>
<path d="M304.56 349.67C304.222 347.632 300.833 342.871 296.383 340.29C292.348 337.95 288.197 336.706 275.596 336.696C269.406 336.691 265.669 340.106 261.568 342.492C257.369 344.935 254.405 348.974 252.004 352.727C249.24 357.045 247.565 360.913 246.198 365.014C245.168 371.819 246.182 380.717 248.225 383.103C249.254 384.137 250.268 384.813 253.36 386.534" stroke="#5AB2F0" stroke-width="6" stroke-linecap="round"/>
<path d="M310.704 356.838C312.066 358.19 312.752 367.016 310.715 373.207C309.173 377.888 304.581 381.393 300.48 383.795C298.437 385.489 296.379 386.872 294.336 387.553C293.307 387.896 292.293 388.234 291.249 388.582" stroke="#5AB2F0" stroke-width="6" stroke-linecap="round"/>
<path d="M362.927 440.805C364.289 437.406 364.975 424.524 362.088 415.226C360.232 409.25 353.732 406.686 349.631 404.121C344.641 400.999 335.997 399.17 321 398.991C314.417 398.912 306.997 402.549 301.334 406.148C296.218 409.4 293.317 414.161 287.685 419.281C282.975 423.562 282.38 429.521 282.37 446.371C282.366 453.712 287.132 458.193 290.895 463.144C293.859 467.043 297.372 470.829 301.98 472.882C310.012 476.461 317.851 476.297 329.771 476.307C332.535 475.969 333.887 475.293 335.09 474.607C336.293 473.921 337.307 473.245 340.4 471.525" stroke="#5AB2F0" stroke-width="6" stroke-linecap="round"/>
<path d="M344.496 473.573C345.509 474.935 348.243 477.648 351.31 482.599C354.367 487.534 357.111 494.032 359.507 498.983C360.193 503.596 362.231 508.706 364.448 512.797C365.313 514.522 365.651 515.536 365.999 516.58" stroke="#5AB2F0" stroke-width="6" stroke-linecap="round"/>
<path d="M368.047 454.117C370.085 454.793 374.171 458.869 377.253 463.825C379.987 470.829 382.711 476.276 384.426 480.726C384.769 481.755 385.107 482.768 386.479 484.837" stroke="#5AB2F0" stroke-width="6" stroke-linecap="round"/>
<path d="M224.689 446.949C228.088 447.625 232.86 450.348 237.299 451.895C242.808 453.814 247.196 453.093 251.297 454.112C253.387 454.631 255.736 455.141 257.784 455.648C258.143 459.902 257.119 464.684 256.607 467.915C256.433 469.794 256.433 472.159 256.433 474.596" stroke="#5AB2F0" stroke-width="6" stroke-linecap="round"/>
<path d="M256.432 474.597C254.057 476.297 248.609 479.021 242.803 484.643C232.922 492.65 219.282 506.955 207.829 519.443C205.919 521.691 205.581 522.704 203.185 524.773" stroke="#5AB2F0" stroke-width="6" stroke-linecap="round"/>
<path d="M330.16 480.741C332.197 482.103 336.283 484.14 340.384 486.705C342.427 487.561 344.147 488.922 345.678 490.796C346.533 491.656 347.547 492.332 348.592 493.029" stroke="#5AB2F0" stroke-width="6" stroke-linecap="round"/>
<path d="M182.416 235.714C181.741 235.714 180.042 235.714 177.825 236.222C173.881 237.126 174.575 243.904 174.734 247.676C174.811 249.515 178.312 249.734 180.354 250.591C181.317 250.996 182.396 250.432 183.425 249.75C184.454 249.067 185.467 248.051 185.989 246.003C186.511 243.956 186.511 240.907 186.004 239.167C185.498 237.428 184.484 237.089 183.44 236.74" stroke="#5AB2F0" stroke-width="6" stroke-linecap="round"/>
<path d="M497.671 266.813C497.671 271.915 496.318 280.765 494.258 310.406C493.826 316.635 494.924 318.34 496.625 320.563C504.782 331.222 514.046 333.726 519 336.292C523.149 338.442 527.367 340.221 531.471 342.27C535.492 344.277 540.688 344.995 548.194 345.86C549.918 346.059 550.935 346.367 551.965 346.541C560.924 348.056 516.136 348.068 511.182 351.822C506.83 355.12 503.512 363.393 499.049 373.657C496.398 379.755 496.994 386.974 496.815 394.324C497.322 396.89 498.685 398.611 500.899 400.143C502.097 400.998 503.45 402.012 506.893 404.081" stroke="#FFA1A1" stroke-width="6" stroke-linecap="round"/>
<path d="M570.928 113.004C569.92 110.951 565.856 107.516 561.777 106.474C560.733 106.207 559.746 105.453 558.722 106.464C551.989 113.114 551.924 121.236 548.537 124.341C544.006 128.496 536.311 126.755 534.447 127.951C533.431 128.603 532.919 130.169 532.909 131.381C532.868 136.308 538.327 139.123 540.023 141.697C543.73 147.322 533.592 158.021 533.077 162.674C532.943 163.885 532.573 165.242 532.904 166.454C533.235 167.666 534.243 168.688 535.267 169.384C536.291 170.08 537.299 170.421 538.49 170.256C544.144 169.473 550.518 165.284 558.172 165.093C563.6 164.957 566.834 169.389 570.913 169.229C573.444 169.13 574.32 165.624 574.829 162.885C576.276 155.103 573.984 149.48 575.333 145.338C577.048 140.075 589.892 139.845 594.684 137.426C595.367 137.081 594.699 135.719 594.022 135.023C590.916 131.829 586.225 129.86 582.147 127.456C580.115 126.084 578.068 124.702 576.54 122.819C576.021 121.617 576.021 119.915 576.021 118.162" stroke="#FFA1A1" stroke-width="6" stroke-linecap="round"/>
<path d="M95.8301 432.58C93.775 431.221 89.6544 429.187 85.348 426.627C83.0231 425.245 80.0089 425.426 77.6026 426.1C71.6363 427.773 71.396 436.648 69.6766 440.404C67.88 444.328 61.7608 442.116 59.8709 443.133C57.8444 444.223 57.2788 446.879 56.7624 448.918C56.5065 449.928 56.5869 450.957 57.0981 451.984C59.4123 456.634 64.828 458.459 67.5956 462.542C70.8606 467.358 66.914 474.106 67.4252 480.065C67.6223 482.361 68.9588 482.988 70.1671 483.504C74.8895 485.521 79.9676 484.03 84.2843 483.177C88.6419 482.316 88.9315 475.527 91.0021 471.091C93.3421 466.078 104.071 475.507 109.064 476.523C110.3 476.775 111.3 477.203 112.338 477.545C113.376 477.888 114.398 478.225 114.925 476.713C118.023 467.815 116.484 457.191 114.429 449.97C113.758 447.612 112.354 444.865 113.035 441.125C114.224 434.599 118.539 432.59 119.748 430.551C120.281 429.651 119.252 428.512 118.219 427.823C115.823 426.795 113.397 426.111 110.484 425.6C108.594 425.426 105.868 425.426 100.994 427.47" stroke="#FFA1A1" stroke-width="6" stroke-linecap="round"/>
<path d="M158.9 154.099C158.212 154.099 155.792 154.099 152.147 154.603C150.501 154.83 149.534 156.113 148.83 157.302C147.431 159.667 147.427 167.257 148.804 180.602C151.516 206.889 159.234 210.003 163.922 214.751C165.9 216.754 168.276 217.812 170.357 218.493C171.351 218.818 172.438 217.832 172.97 216.312C175.513 209.044 174.545 183.139 173.507 167.506C173.212 163.058 170.039 159.204 166.561 155.975C165.857 155.126 165.513 154.12 164.819 153.433C164.125 152.747 163.093 152.411 160.986 152.066" stroke="#5AB2F0" stroke-width="6" stroke-linecap="round"/>
<path d="M130.617 313.517C122.055 318.623 115.9 321.355 110.06 323.57C105.219 325.406 97.7252 324.772 89.5125 323.59C80.6513 322.315 70.6479 311.869 59.0029 300.302C39.8404 281.267 39.3716 262.745 38.1674 255.899C37.5196 252.217 39.351 248.051 42.2584 244.306C44.9961 240.78 49.2927 239.17 53.3991 238.147C55.4342 237.64 57.5055 237.799 59.0646 238.643C62.2475 240.366 62.6925 246.629 62.183 253.439C61.7603 259.089 56.2087 264.709 49.0251 270.332C42.3317 275.571 34.9256 274.635 30.4796 274.297C25.2692 273.901 19.838 271.237 14.7025 268.347C10.2462 265.119 7.12781 259.665 5.58406 252.518C5.05919 249.085 5.05919 246.046 3.00085 240.868" stroke="#87D7FF" stroke-width="6" stroke-linecap="round"/>
<path d="M468.426 478.778C479.029 484.614 484.495 488.038 501.212 492.513C517.993 497.006 536.506 491.853 549.503 489.11C564.727 485.897 572.508 480.861 579.88 471.085C583.074 466.85 583.502 459.917 582.993 452.874C582.801 450.213 581.467 449.574 580.265 449.224C577.786 448.501 572.919 451.596 564.052 460.655C549.553 475.467 541.735 491.111 538.828 498.489C536.634 504.055 536.238 509.002 536.917 512.951C537.855 518.417 545.465 518.293 549.919 520.02C552.986 520.706 556.767 521.397 560.358 522.083C561.915 522.428 562.932 522.768 566.035 523.119" stroke="#87D7FF" stroke-width="6" stroke-linecap="round"/>
<path d="M66.273 379.527C62.8694 379.868 53.9746 383.966 34.6478 395.995C26.3015 401.19 20.3596 401.553 17.2799 400.18C12.5696 398.081 8.38 387.516 4.92492 372.359C1.63176 357.913 8.66792 348.585 12.7862 343.765C16.1979 339.772 26.1078 340.307 36.5913 342.531C39.9918 343.253 41.5837 346.83 43.2958 349.916C45.1897 353.33 44.6788 358.514 44.5092 363.153C44.3135 368.503 37.1723 371.601 33.0385 375.043C31.0376 376.709 28.2364 376.431 26.0153 375.92C23.1094 375.252 21.0383 371.632 19.4959 367.689C17.6779 363.042 19.6501 358.896 21.3571 356.666C22.3215 355.407 23.7427 354.096 25.1206 353.394C27.6383 352.112 30.6117 353.033 33.1773 353.89C34.4233 354.306 35.4036 355.087 35.928 355.949C36.4525 356.811 36.4525 357.832 35.9435 358.529C34.4164 359.566 32.0102 360.258 29.4446 360.944C28.2364 361.29 27.2184 361.631 24.1129 361.982" stroke="#D987FF" stroke-width="6" stroke-linecap="round"/>
<path d="M493.091 129.545C494.457 125.804 495.145 110.457 496.5 89.2779C498.048 65.0902 505.053 49.0622 508.298 42.0572C514.4 28.8822 519.767 20.631 526.774 12.7369C532.524 6.25979 538.248 4.49334 542.53 3.29072C547.317 1.94604 552.274 5.50066 556.735 9.43744C561.127 13.3132 561.186 18.5136 561.715 35.597C561.975 44.0088 557.449 50.0284 553.516 54.3249C549.734 58.4568 544.111 57.5936 539.67 56.7456C535.21 55.8938 533.823 51.0974 533.14 47.8544C532.251 43.6321 532.108 38.7731 532.447 34.6667C532.688 31.7448 534.839 29.8511 536.544 27.9701C538.45 25.8668 541.339 25.3901 543.387 25.0458C544.405 24.8747 545.436 25.3798 546.467 25.8938C547.499 26.4077 548.516 27.0861 549.039 28.962C549.563 30.8379 549.563 33.8907 549.055 35.9721C547.53 39.0712 545.466 40.798 543.249 41.8259C542.047 42.1754 540.692 42.1754 540.322 42.1754" stroke="#D987FF" stroke-width="6" stroke-linecap="round"/>
<path d="M473.907 560.47C470.474 556.761 468.422 551.344 464.474 548.285C463.381 547.438 461.907 546.933 460.696 546.755C459.484 546.577 458.464 546.913 457.938 548.427C456.549 552.428 457.753 556.395 457.758 558.423C457.775 565.215 442.99 562.158 441.274 563.677C440.45 564.406 440.238 565.532 441.083 567.056C445.167 574.421 449.846 574.689 450.706 576.716C452.406 580.721 446.423 584.842 446.583 591.951C446.616 593.417 448.114 593.664 449.32 593.836C454.26 594.544 460.464 588.968 465.814 586.051C470.537 583.477 474.927 589.598 476.984 590.782C477.985 591.359 479.041 591.631 479.566 589.624C481.187 583.438 480.432 577.758 480.948 575.563C481.223 574.392 481.123 573.032 483.504 572.341C485.886 571.65 490.649 571.65 492.762 571.147C494.875 570.644 494.195 569.638 493.334 568.784C491.453 567.26 489.04 566.233 486.468 565.389C485.257 564.881 484.236 564.211 481.123 562.503" stroke="#87FFBD" stroke-width="6" stroke-linecap="round"/>
<path d="M45.473 138.088C41.3552 135.103 38.2592 132.768 36.5409 132.763C34.8328 132.758 35.1528 137.07 34.642 140.394C33.9073 145.174 26.9173 145.735 23.1246 147.397C22.2339 147.787 22.0874 149.049 22.5931 149.887C25.4512 154.626 31.355 155.717 33.419 157.539C38.622 162.131 32.0568 170.351 32.7379 172.512C33.0606 173.536 34.7813 173.685 35.9939 173.361C41.9764 171.76 44.0901 164.062 46.665 160.229C47.331 159.238 48.5484 158.732 49.5856 158.557C53.7431 157.857 57.8366 162.026 60.9481 163.214C66.8451 165.465 58.5487 151.075 58.203 149.084C57.2574 143.637 66.7945 140.095 67.3157 138.103C67.5732 137.119 66.134 136.112 63.7346 135.603C57.5889 135.093 52.7075 135.752 50.6486 136.915C49.6114 137.419 48.5897 137.749 47.537 139.086" stroke="#87FFBD" stroke-width="6" stroke-linecap="round"/>
<path d="M212.127 313.999C210.139 313.999 204.835 316.702 200.484 320.3C198.864 321.639 199.14 324.563 199.635 327.117C200.645 332.335 207.112 333.776 211.113 335.66C212.132 336.139 213.106 336.847 214.44 336.351C220.755 334 219.45 328.341 219.62 326.298C219.706 325.26 218.801 324.256 217.967 323.396C217.133 322.537 216.143 321.861 215.139 322.02C214.135 322.178 213.146 323.192 212.637 324.389C212.127 325.587 212.127 326.938 214.125 328.33" stroke="#FF8797" stroke-width="6" stroke-linecap="round"/>
<path d="M374.462 347.579C373.805 347.579 372.481 347.579 370.495 348.074C369.413 348.344 368.51 349.559 368.002 351.224C367.494 352.889 367.494 355.2 367.987 356.555C369.492 360.695 375.437 361.9 379.423 363.245C380.371 363.565 381.409 362.92 382.245 362.255C386.07 359.213 387.062 353.6 386.908 349.094C386.843 347.201 383.429 347.249 381.772 347.244C380.772 348.559 380.433 351.559 380.926 354.725C381.419 355.91 382.404 356.24 383.419 356.58" stroke="#FF8797" stroke-width="6" stroke-linecap="round"/>
</svg>
