<svg width="412" height="103" viewBox="0 0 462 153" fill="none" xmlns="http://www.w3.org/2000/svg">
<path d="M104.686 52.0342C105.534 49.9664 108.463 49.9665 109.312 52.0342L118.578 74.6152C119.679 77.2977 122.228 79.1056 125.123 79.2578L150.167 80.5742C152.485 80.6963 153.4 83.6359 151.561 85.0518L132.572 99.6699C130.147 101.537 129.1 104.689 129.925 107.636L136.273 130.302C136.885 132.487 134.503 134.292 132.565 133.111L110.9 119.918C108.504 118.459 105.494 118.459 103.098 119.918L81.4329 133.111C79.4947 134.292 77.1129 132.487 77.7249 130.302L84.0735 107.636C84.8986 104.689 83.8506 101.536 81.426 99.6699L62.4368 85.0518C60.5976 83.6359 61.5134 80.696 63.8313 80.5742L88.8743 79.2578C91.7698 79.1056 94.3184 77.2977 95.4192 74.6152L104.686 52.0342Z" fill="#5AB2F0" stroke="#5AB2F0" stroke-width="5"/>
<path d="M413.956 32.7804C415.74 31.4437 418.249 32.9345 417.928 35.1408L415.739 50.2052C415.323 53.0691 416.592 55.9174 418.999 57.5233L431.854 66.0977C433.788 67.3882 433.068 70.3897 430.758 70.6606L416.414 72.3431C413.361 72.7012 410.836 74.8848 410.042 77.8537L406.35 91.6597C405.764 93.8504 402.798 94.192 401.73 92.1918L394.216 78.1269C392.902 75.6668 390.331 74.1393 387.542 74.1613L371.595 74.2878C369.328 74.3054 368.21 71.5378 369.853 69.9757L380.213 60.1313C382.441 58.0142 383.152 54.7526 382.007 51.9006L376.625 38.4979C375.759 36.34 378.049 34.2716 380.108 35.3532L393.786 42.5428C396.347 43.8893 399.456 43.6418 401.772 41.9069L413.956 32.7804Z" fill="#5AB2F0" stroke="#5AB2F0" stroke-width="5"/>
<circle cx="286.989" cy="48.1081" r="11.2712" stroke="#5AB2F0" stroke-width="4"/>
<path d="M228.099 68.3574C231.673 68.3576 234.393 71.0856 234.393 74.2373C234.393 77.389 231.673 80.117 228.099 80.1172C224.525 80.1172 221.804 77.3891 221.804 74.2373C221.804 71.0854 224.525 68.3574 228.099 68.3574Z" stroke="#5AB2F0" stroke-width="4"/>
<path d="M8.29492 68.3574C11.869 68.3576 14.5889 71.0856 14.5889 74.2373C14.5888 77.389 11.8689 80.117 8.29492 80.1172C4.72071 80.1172 2.00007 77.3891 2 74.2373C2 71.0854 4.72066 68.3574 8.29492 68.3574Z" stroke="#5AB2F0" stroke-width="4"/>
</svg>
