<svg width="900" height="135" viewBox="0 0 949 184" fill="none" xmlns="http://www.w3.org/2000/svg">
<path d="M126.688 60.2207C127.536 58.1532 130.464 58.1532 131.312 60.2207L143.684 90.3652C144.784 93.0473 147.332 94.8545 150.228 95.0068L183.847 96.7744C186.165 96.8962 187.079 99.836 185.24 101.252L159.595 120.995C157.17 122.862 156.122 126.014 156.947 128.961L165.491 159.469C166.103 161.654 163.721 163.459 161.783 162.278L132.901 144.688C130.505 143.229 127.495 143.229 125.099 144.688L96.2168 162.278C94.2786 163.459 91.8968 161.654 92.5088 159.469L101.053 128.961C101.878 126.014 100.83 122.862 98.4053 120.995L72.7598 101.252C70.9206 99.8361 71.8355 96.8962 74.1533 96.7744L107.772 95.0068C110.668 94.8545 113.216 93.0473 114.316 90.3652L126.688 60.2207Z" fill="#5AB2F0" stroke="#5AB2F0" stroke-width="5"/>
<path d="M500.756 37.6169C502.54 36.2802 505.049 37.771 504.729 39.9773L501.638 61.2446C501.222 64.1086 502.491 66.9567 504.899 68.5627L523.262 80.8114C525.197 82.1018 524.476 85.103 522.167 85.3743L501.403 87.8096C498.351 88.1676 495.825 90.3519 495.031 93.3211L489.727 113.155C489.141 115.346 486.176 115.688 485.107 113.687L474.528 93.8857C473.214 91.4255 470.642 89.8975 467.853 89.9196L445.403 90.0978C443.136 90.1158 442.018 87.3479 443.661 85.7857L458.544 71.6425C460.772 69.5253 461.483 66.2631 460.338 63.4109L452.548 44.011C451.682 41.8531 453.973 39.7848 456.031 40.8667L475.57 51.1375C478.132 52.484 481.24 52.2366 483.557 50.5016L500.756 37.6169Z" fill="#5AB2F0" stroke="#5AB2F0" stroke-width="5"/>
<path d="M829.191 127.056C830.046 125.003 832.954 125.003 833.809 127.056L837.207 135.223C838.317 137.889 840.859 139.683 843.743 139.832L852.431 140.282C854.758 140.403 855.669 143.361 853.813 144.771L847.634 149.463C845.174 151.33 844.111 154.514 844.954 157.484L847.096 165.028C847.714 167.208 845.347 169.02 843.404 167.854L835.362 163.023C832.986 161.596 830.014 161.596 827.638 163.023L819.596 167.854C817.653 169.02 815.286 167.208 815.904 165.028L818.046 157.484C818.889 154.514 817.826 151.33 815.366 149.463L809.187 144.771C807.331 143.361 808.242 140.403 810.569 140.282L819.257 139.832C822.141 139.683 824.683 137.889 825.793 135.223L829.191 127.056Z" fill="#5AB2F0" stroke="#5AB2F0" stroke-width="5"/>
<circle cx="346" cy="58" r="14" stroke="#5AB2F0" stroke-width="4"/>
<path d="M275 82C279.516 82 283 85.4533 283 89.5C283 93.5467 279.516 97 275 97C270.484 97 267 93.5467 267 89.5C267 85.4533 270.484 82 275 82Z" stroke="#5AB2F0" stroke-width="4"/>
<path d="M10 82C14.5162 82 18 85.4533 18 89.5C18 93.5467 14.5162 97 10 97C5.48382 97 2 93.5467 2 89.5C2 85.4533 5.48382 82 10 82Z" stroke="#5AB2F0" stroke-width="4"/>
<circle cx="643.313" cy="70.2694" r="14" transform="rotate(-125.44 643.313 70.2694)" stroke="#5AB2F0" stroke-width="4"/>
<path d="M704.036 114.199C701.417 110.519 702.211 105.678 705.507 103.332C708.804 100.986 713.638 101.822 716.257 105.501C718.875 109.18 718.082 114.021 714.785 116.368C711.488 118.714 706.655 117.878 704.036 114.199Z" stroke="#5AB2F0" stroke-width="4"/>
<path d="M928.428 114.199C925.809 110.519 926.603 105.678 929.9 103.332C933.197 100.986 938.03 101.822 940.649 105.501C943.267 109.18 942.474 114.021 939.177 116.368C935.88 118.714 931.047 117.878 928.428 114.199Z" stroke="#5AB2F0" stroke-width="4"/>
</svg>
