<svg width="32" height="32" viewBox="0 0 32 32" fill="none" xmlns="http://www.w3.org/2000/svg">
<path fill-rule="evenodd" clip-rule="evenodd" d="M26.56 0.654529L26.8978 0.85248L30.4178 3.08578C30.863 3.36853 31.2354 3.7433 31.5072 4.18215C31.779 4.62099 31.9432 5.11257 31.9876 5.62023L32 5.90108V27.1157C31.9999 27.9228 31.6968 28.7033 31.1452 29.3163C30.5936 29.9294 29.8299 30.3346 28.992 30.4589L28.7164 30.4893L8.22044 31.99C7.67488 32.03 7.127 31.9495 6.61946 31.7549C6.11191 31.5604 5.6584 31.257 5.29422 30.8683L5.104 30.6467L1.06667 25.5236C0.453087 24.7448 0.0877569 23.8146 0.014222 22.8437L0 22.4782V4.87072C6.00829e-05 4.06364 0.303236 3.28316 0.854819 2.67011C1.4064 2.05707 2.17006 1.65184 3.008 1.52754L3.28356 1.49709L23.5289 0.0149937C24.583 -0.0622752 25.6374 0.160326 26.5582 0.654529H26.56ZM28.4444 8.51506L8.88889 9.9464V28.547L28.4444 27.1157V8.51506ZM23.1111 10.9175C23.5826 10.9175 24.0348 11.0958 24.3682 11.4131C24.7016 11.7304 24.8889 12.1607 24.8889 12.6094V24.4527C24.8889 24.9014 24.7016 25.3317 24.3682 25.649C24.0348 25.9663 23.5826 26.1446 23.1111 26.1446H22.2222C21.9185 26.1446 21.6198 26.0707 21.3546 25.9297C21.0895 25.7887 20.8667 25.5854 20.7076 25.3392L16 18.0573V25.2986C16 25.7473 15.8127 26.1777 15.4793 26.495C15.1459 26.8123 14.6937 26.9905 14.2222 26.9905C13.7507 26.9905 13.2985 26.8123 12.9651 26.495C12.6317 26.1777 12.4444 25.7473 12.4444 25.2986V13.4554C12.4444 13.0067 12.6317 12.5763 12.9651 12.259C13.2985 11.9417 13.7507 11.7635 14.2222 11.7635H15.1111C15.4148 11.7634 15.7135 11.8374 15.9787 11.9784C16.2438 12.1193 16.4666 12.3226 16.6258 12.5688L21.3333 19.849V12.6094C21.3333 12.1607 21.5206 11.7304 21.854 11.4131C22.1874 11.0958 22.6396 10.9175 23.1111 10.9175ZM23.8009 3.38862L5.76889 4.7083L7.79022 6.63198L27.3422 5.20233L24.9244 3.66779C24.5933 3.45767 24.1977 3.35937 23.8009 3.38862Z"/>
</svg>
