<svg width="256" height="119" viewBox="0 0 356 219" fill="none" xmlns="http://www.w3.org/2000/svg">
<path d="M166.585 46.8454L166.486 51.8444L166.499 51.8447L166.585 46.8454ZM113.556 88.8183L108.663 87.7918C108.661 87.7994 108.66 87.807 108.658 87.8146L113.556 88.8183ZM113.676 97.63L118.14 95.3781C118.137 95.3722 118.134 95.3664 118.131 95.3606L113.676 97.63ZM121.047 103.139L118.935 107.672L118.941 107.674L121.047 103.139ZM210.015 104.782L211.953 109.391L211.957 109.389L210.015 104.782ZM217.584 99.5481L213.215 97.1159C213.212 97.1216 213.209 97.1273 213.206 97.133L217.584 99.5481ZM218.029 90.7469L222.96 89.9228C222.959 89.9157 222.958 89.9087 222.957 89.9017L218.029 90.7469ZM169.158 178.378C169.209 175.617 167.012 173.338 164.251 173.287C161.49 173.236 159.21 175.432 159.159 178.193L164.159 178.286L169.158 178.378ZM158.674 204.482C158.623 207.242 160.82 209.522 163.581 209.573C166.342 209.624 168.622 207.427 168.673 204.666L163.673 204.574L158.674 204.482ZM213.287 169.207C212.663 166.517 209.976 164.842 207.286 165.467C204.596 166.091 202.922 168.777 203.546 171.467L208.417 170.337L213.287 169.207ZM211.718 206.681C212.342 209.371 215.029 211.045 217.719 210.421C220.409 209.797 222.084 207.11 221.459 204.42L216.589 205.551L211.718 206.681ZM125.05 170.018C125.773 167.353 124.199 164.607 121.534 163.883C118.869 163.16 116.122 164.735 115.399 167.4L120.224 168.709L125.05 170.018ZM105.932 202.288C105.209 204.953 106.784 207.699 109.449 208.422C112.114 209.146 114.86 207.571 115.584 204.906L110.758 203.597L105.932 202.288ZM166.585 46.8454L166.684 41.8464C153.148 41.5784 139.94 46.0182 129.345 54.4047L132.448 58.3253L135.551 62.2458C144.322 55.3037 155.264 51.6222 166.486 51.8444L166.585 46.8454ZM132.448 58.3253L129.345 54.4047C118.748 62.7918 111.43 74.6002 108.663 87.7918L113.556 88.8183L118.45 89.8448C120.735 78.9509 126.781 69.1873 135.551 62.2458L132.448 58.3253ZM113.556 88.8183L108.658 87.8146C107.88 91.6116 106.929 95.4003 109.22 99.8993L113.676 97.63L118.131 95.3606C117.83 94.7702 117.769 94.4158 117.784 93.8758C117.807 93.053 118.006 92.0116 118.454 89.8219L113.556 88.8183ZM113.676 97.63L109.212 99.8819C111.49 104.398 115.247 105.954 118.935 107.672L121.047 103.139L123.158 98.607C121.024 97.6129 119.96 97.101 119.207 96.584C118.679 96.2209 118.42 95.934 118.14 95.3781L113.676 97.63ZM121.047 103.139L118.941 107.674C131.723 113.61 147.832 117.243 165.28 117.565L165.372 112.566L165.464 107.566C149.222 107.267 134.512 103.879 123.152 98.6044L121.047 103.139ZM165.372 112.566L165.28 117.565C182.726 117.887 198.968 114.851 211.953 109.391L210.015 104.782L208.077 100.173C196.54 105.024 181.707 107.866 165.464 107.566L165.372 112.566ZM210.015 104.782L211.957 109.389C215.707 107.808 219.519 106.392 221.962 101.963L217.584 99.5481L213.206 97.133C212.905 97.6782 212.636 97.9554 212.095 98.2988C211.324 98.7876 210.242 99.2599 208.072 100.175L210.015 104.782ZM217.584 99.5481L221.952 101.98C224.409 97.5688 223.598 93.7399 222.96 89.9228L218.029 90.7469L213.097 91.571C213.464 93.7693 213.624 94.818 213.617 95.6416C213.612 96.1847 213.537 96.5385 213.215 97.1159L217.584 99.5481ZM218.029 90.7469L222.957 89.9017C220.678 76.6169 213.801 64.5465 203.521 55.774L200.275 59.5774L197.03 63.3807C205.537 70.6411 211.219 80.6213 213.101 91.5921L218.029 90.7469ZM200.275 59.5774L203.521 55.774C193.242 47.0022 180.207 42.0779 166.671 41.8461L166.585 46.8454L166.499 51.8447C177.722 52.0368 188.521 56.1197 197.03 63.3807L200.275 59.5774ZM210.277 69.5661L208.921 74.3787C221.633 77.9606 231.893 82.8711 238.828 88.4017C245.807 93.9672 248.832 99.639 248.736 104.857L253.735 104.949L258.734 105.041C258.91 95.4939 253.323 87.17 245.063 80.5833C236.759 73.9616 225.154 68.5633 211.633 64.7535L210.277 69.5661ZM253.735 104.949L248.736 104.857C248.591 112.703 241.17 121.318 225.406 128.104C210.105 134.692 188.709 138.675 164.898 138.236L164.806 143.235L164.713 148.234C189.611 148.694 212.476 144.558 229.36 137.289C245.782 130.22 258.472 119.242 258.734 105.041L253.735 104.949ZM164.806 143.235L164.898 138.236C141.087 137.796 119.853 133.023 104.805 125.875C89.3019 118.51 82.2047 109.627 82.3494 101.785L77.3503 101.693L72.3511 101.601C72.089 115.797 84.3653 127.236 100.514 134.907C117.119 142.795 139.816 147.775 164.713 148.234L164.806 143.235ZM77.3503 101.693L82.3494 101.785C82.4457 96.5674 85.6778 91.0112 92.8576 85.707C99.9923 80.4362 110.426 75.9077 123.262 72.7975L122.085 67.9381L120.907 63.0787C107.255 66.3869 95.4578 71.3532 86.9156 77.6638C78.4184 83.9413 72.5274 92.0532 72.3511 101.601L77.3503 101.693ZM164.159 178.286L159.159 178.193L158.674 204.482L163.673 204.574L168.673 204.666L169.158 178.378L164.159 178.286ZM208.417 170.337L203.546 171.467L211.718 206.681L216.589 205.551L221.459 204.42L213.287 169.207L208.417 170.337ZM120.224 168.709L115.399 167.4L105.932 202.288L110.758 203.597L115.584 204.906L125.05 170.018L120.224 168.709Z" fill="#5AB2F0"/>
<path d="M76.1705 98.7281C88.2627 75.7947 107.498 71.5498 115.604 72.2941L114.695 101.526C127.054 106.102 156.339 115.253 174.609 115.25C228.359 111.311 222.032 86.9564 212.15 75.2717C229.527 76.739 261.675 85.6462 251.246 109.537C238.21 139.4 194.3 145.959 159.935 145.555C125.569 145.151 69.7795 120.653 76.1705 98.7281Z" fill="#5AB2F0"/>
<path d="M329.402 106.711C329.402 105.978 328.302 103.767 326.086 100.622C325.093 99.2146 323.869 98.5777 322.752 99.3C314.976 104.33 315.336 114.111 313.491 115.406C311.249 116.979 306.469 116.711 301.841 118.178C299.705 118.855 299.78 122.578 300.325 124.822C301.32 128.924 305.313 131.144 307.719 133.544C312.582 138.396 306.069 147.8 307.352 150.95C308.821 154.556 314.947 150.789 317.163 149.683C319.741 148.398 321.613 144.878 323.83 141.917C324.781 140.646 326.047 140.422 327.347 140.967C333.411 143.506 336.047 147.444 340.313 148.011C345.979 148.764 343.847 136.378 343.291 130.622C342.519 122.624 351.613 120.056 352.363 117.656C345.725 113.378 338.68 113.011 335.536 112.089C334.225 111.533 333.491 110.8 332.736 110.044" stroke="#5AB2F0" stroke-width="6" stroke-linecap="round"/>
<path d="M32.4023 18.7111C32.4023 17.9777 31.3023 15.7666 29.0856 12.6222C28.0933 11.2146 26.869 10.5777 25.7523 11.3C17.9757 16.3296 18.3356 26.1111 16.4912 27.4055C14.2487 28.9793 9.46897 28.7111 4.84119 30.1777C2.70487 30.8548 2.78008 34.5777 3.32453 36.8222C4.31957 40.9242 8.31338 43.1444 10.719 45.5444C15.5819 50.3961 9.06894 59.8 10.3523 62.95C11.8214 66.5561 17.9467 62.7888 20.1634 61.6833C22.7408 60.3979 24.6134 56.8777 26.8301 53.9166C27.7812 52.6461 29.0467 52.4222 30.3467 52.9666C36.4107 55.5062 39.0467 59.4444 43.3134 60.0111C48.9792 60.7636 46.8467 48.3777 46.2912 42.6222C45.5192 34.6237 54.6134 32.0555 55.3634 29.6555C48.7245 25.3777 41.6801 25.0111 38.5356 24.0888C37.2245 23.5333 36.4912 22.7999 35.7356 22.0444" stroke="#5AB2F0" stroke-width="6" stroke-linecap="round"/>
<path d="M301.667 3C293.578 3.73333 278 7.42221 274.083 10.95C270.17 14.4749 271.667 24.8 273.695 31.8667C274.549 34.8443 275.733 37.4333 277.211 39.65C277.956 40.7667 278.689 41.8667 281.633 42.4333C289.585 43.9637 296.1 41.9 297.95 39.6833C300.931 36.1121 302.4 31.1778 302.411 20.0778C302.414 17.7926 301.311 17.0889 299.1 16.7111C296.889 16.3333 293.222 16.3333 290.967 16.7C288.711 17.0667 287.978 17.8 287.417 18.9111C284.749 24.1936 283.889 28.9111 284.806 31.1333C285.259 32.2315 287.556 31.8889 288.867 31.5222C290.178 31.1555 290.911 30.4222 291.472 29.4944C292.033 28.5667 292.4 27.4667 292.778 25.2222" stroke="#5AB2F0" stroke-width="6" stroke-linecap="round"/>
<path d="M41.6666 178.556C29.2 185.156 22.4111 190.756 21.8555 195.189C21.3037 199.592 23.1333 205.189 26.0888 210.372C31.8999 220.563 53.4999 212.267 57.1944 209.872C59.2878 208.516 60.8888 205.645 61.8333 202.672C62.7778 199.7 62.7778 196.4 61.8611 194.517C60.3061 191.322 54.6555 191.889 50.2166 192.072C47.1965 192.197 45.0111 193.733 42.9777 195.578C41.903 196.553 41.3111 198.156 40.9333 199.645C40.5555 201.133 40.5555 202.6 41.2888 203.539C42.8635 205.555 47.5666 204.856 52.0055 203.933C53.8777 203.378 54.9777 202.645 55.5444 201.35C56.1111 200.056 56.1111 198.222 56.1111 196.333" stroke="#5AB2F0" stroke-width="6" stroke-linecap="round"/>
</svg>
