<svg width="70" height="77" viewBox="0 0 126 119" fill="none" xmlns="http://www.w3.org/2000/svg">
<path d="M75.7963 14.4508L75.0984 16.8514L75.1048 16.8532L75.7963 14.4508ZM39.1744 30.211L36.9454 29.079L36.9402 29.0894L39.1744 30.211ZM37.8913 35.2453L40.3394 34.7387L40.3374 34.7291L37.8913 35.2453ZM41.242 39.5116L39.6333 41.4253L39.6356 41.4272L41.242 39.5116ZM91.6334 54.0896L91.9696 56.5669L91.9719 56.5665L91.6334 54.0896ZM96.7444 52.2712L94.9517 50.5287L94.9449 50.5357L96.7444 52.2712ZM98.3473 47.3294L100.835 47.573L100.836 47.5623L98.3473 47.3294ZM56.6607 89.5928C57.0444 88.2665 56.2802 86.8802 54.9539 86.4965C53.6275 86.1128 52.2413 86.877 51.8576 88.2033L54.2591 88.8981L56.6607 89.5928ZM47.5502 103.093C47.1665 104.419 47.9306 105.805 49.2569 106.189C50.5833 106.573 51.9695 105.809 52.3532 104.482L49.9517 103.788L47.5502 103.093ZM83.1693 91.2481C83.2177 89.8682 82.1384 88.7103 80.7586 88.6618C79.3787 88.6134 78.2208 89.6927 78.1723 91.0725L80.6708 91.1603L83.1693 91.2481ZM77.4243 112.37C77.3758 113.75 78.4551 114.908 79.835 114.956C81.2148 115.005 82.3727 113.926 82.4212 112.546L79.9227 112.458L77.4243 112.37ZM32.8785 77.9693C33.5742 76.7767 33.1714 75.2459 31.9788 74.5501C30.7862 73.8544 29.2554 74.2572 28.5597 75.4498L30.7191 76.7095L32.8785 77.9693ZM17.8212 93.8573C17.1255 95.0499 17.5283 96.5807 18.7209 97.2765C19.9135 97.9722 21.4443 97.5694 22.1401 96.3768L19.9807 95.1171L17.8212 93.8573ZM75.7963 14.4508L76.4943 12.0502C68.9299 9.85089 60.8375 10.3464 53.6159 13.4542L54.6041 15.7506L55.5924 18.047C61.7451 15.3992 68.645 14.9751 75.0984 16.8514L75.7963 14.4508ZM54.6041 15.7506L53.6159 13.4542C46.3938 16.5622 40.4959 22.0881 36.9454 29.079L39.1744 30.211L41.4034 31.3431C44.4224 25.3988 49.4401 20.6946 55.5924 18.047L54.6041 15.7506ZM39.1744 30.211L36.9402 29.0894C35.9039 31.1537 34.8678 33.0251 35.4452 35.7614L37.8913 35.2453L40.3374 34.7291C40.2409 34.2719 40.2643 33.9847 40.3768 33.6097C40.5299 33.0992 40.8239 32.4976 41.4087 31.3327L39.1744 30.211ZM37.8913 35.2453L35.4431 35.7518C36.0108 38.4952 37.7738 39.862 39.6333 41.4253L41.242 39.5116L42.8508 37.598C40.7306 35.8156 40.4986 35.508 40.3394 34.7387L37.8913 35.2453ZM41.242 39.5116L39.6356 41.4272C45.9478 46.7207 54.5027 51.2321 64.333 54.076L65.0277 51.6744L65.7225 49.2729C56.4712 46.5966 48.5598 42.3857 42.8485 37.5961L41.242 39.5116ZM65.0277 51.6744L64.333 54.076C74.1629 56.9197 83.8105 57.6743 91.9696 56.5669L91.6334 54.0896L91.2971 51.6123C83.9164 52.6141 74.9741 51.9494 65.7225 49.2729L65.0277 51.6744ZM91.6334 54.0896L91.9719 56.5665C94.3789 56.2375 96.5993 56.0231 98.544 54.0066L96.7444 52.2712L94.9449 50.5357C94.3995 51.1012 94.0392 51.2375 91.2948 51.6126L91.6334 54.0896ZM96.7444 52.2712L98.5372 54.0136C100.486 52.0081 100.611 49.8681 100.835 47.573L98.3473 47.3294L95.8591 47.0859C95.7325 48.3796 95.6598 49.0456 95.5166 49.5593C95.411 49.9379 95.2768 50.1942 94.9517 50.5287L96.7444 52.2712ZM98.3473 47.3294L100.836 47.5623C101.567 39.7555 99.5301 31.9343 95.0829 25.4504L93.0213 26.8645L90.9596 28.2785C94.7481 33.802 96.4792 40.4585 95.8581 47.0965L98.3473 47.3294ZM93.0213 26.8645L95.0829 25.4504C90.636 18.9669 84.0581 14.2274 76.4879 12.0483L75.7963 14.4508L75.1048 16.8532C81.5631 18.7123 87.1709 22.7547 90.9596 28.2785L93.0213 26.8645ZM97.1827 34.0841L95.9021 36.2312C102.621 40.2387 107.761 44.6439 110.907 48.9187C114.07 53.216 115.002 57.0528 114.093 60.1943L116.494 60.8891L118.896 61.5838C120.406 56.3624 118.582 50.9119 114.934 45.955C111.269 40.9755 105.543 36.1597 98.4633 31.937L97.1827 34.0841ZM116.494 60.8891L114.093 60.1943C112.728 64.9117 106.928 68.7183 96.882 70.1686C87.0856 71.5829 74.2305 70.5591 60.6971 66.6439L60.0024 69.0455L59.3076 71.447C73.3626 75.513 86.9471 76.6547 97.5965 75.1173C107.997 73.6159 116.648 69.3538 118.896 61.5838L116.494 60.8891ZM60.0024 69.0455L60.6971 66.6439C47.1639 62.7288 35.7481 56.7299 28.22 50.3031C20.5002 43.7125 17.6284 37.397 18.9923 32.6823L16.5908 31.9875L14.1893 31.2928C11.9421 39.0604 16.9819 47.2832 24.9736 54.1058C33.157 61.0921 45.2525 67.3809 59.3076 71.447L60.0024 69.0455ZM16.5908 31.9875L18.9923 32.6823C19.9011 29.5408 22.7376 26.7941 27.7062 24.8492C32.6486 22.9144 39.3464 21.9336 47.1674 22.1325L47.2309 19.6333L47.2945 17.1341C39.0534 16.9246 31.6408 17.9395 25.8836 20.1932C20.1524 22.4367 15.6998 26.0714 14.1893 31.2928L16.5908 31.9875ZM54.2591 88.8981L51.8576 88.2033L47.5502 103.093L49.9517 103.788L52.3532 104.482L56.6607 89.5928L54.2591 88.8981ZM80.6708 91.1603L78.1723 91.0725L77.4243 112.37L79.9227 112.458L82.4212 112.546L83.1693 91.2481L80.6708 91.1603ZM30.7191 76.7095L28.5597 75.4498L17.8212 93.8573L19.9807 95.1171L22.1401 96.3768L32.8785 77.9693L30.7191 76.7095Z" fill="#5AB2F0"/>
<path d="M16.374 30.1191C26.774 18.9191 38.374 19.4525 42.874 21.1191L37.874 37.6191C44.2074 42.1191 59.474 51.8191 69.874 54.6191C101.074 60.6191 101.207 45.7858 97.374 37.6191C107.041 41.1191 123.974 51.1191 114.374 63.1191C102.374 78.1191 76.374 75.1191 56.874 69.6191C37.374 64.1191 9.37402 41.6191 16.374 30.1191Z" fill="#5AB2F0"/>
</svg>
