<svg width="32" height="32" viewBox="0 0 32 32" fill="none" xmlns="http://www.w3.org/2000/svg">
<path d="M9.92398 7.13336C10.776 7.13336 11.564 7.20003 12.284 7.39736C13.0053 7.52936 13.596 7.79336 14.12 8.1227C14.6453 8.45247 15.0386 8.91425 15.3 9.50803C15.5626 10.1014 15.6946 10.828 15.6946 11.6187C15.6946 12.5427 15.4973 13.3334 15.0386 13.9267C14.6453 14.5214 13.9893 15.048 13.2026 15.444C14.3173 15.7747 15.1693 16.368 15.6946 17.1587C16.22 17.9494 16.5466 18.94 16.5466 20.0614C16.5466 20.9854 16.3493 21.776 16.0213 22.436C15.6946 23.096 15.1693 23.6894 14.5786 24.0854C13.9368 24.5093 13.2276 24.8213 12.4813 25.008C11.6946 25.2067 10.908 25.3387 10.1213 25.3387H1.33331V7.13336H9.92398ZM9.39865 14.52C10.12 14.52 10.7106 14.3227 11.1693 13.9934C11.628 13.664 11.8253 13.0694 11.8253 12.344C11.8253 11.948 11.7586 11.552 11.628 11.2894C11.4973 11.0267 11.3 10.8267 11.0386 10.6294C10.7714 10.4793 10.4841 10.3684 10.1853 10.3C9.85731 10.2334 9.53065 10.2334 9.13598 10.2334H5.33331V14.5214L9.39865 14.52ZM9.59598 22.304C9.98931 22.304 10.3826 22.2374 10.7106 22.172C11.0386 22.1054 11.3666 21.9747 11.628 21.776C11.8941 21.5818 12.1174 21.3349 12.284 21.0507C12.4146 20.7214 12.5466 20.3254 12.5466 19.864C12.5466 18.94 12.284 18.28 11.76 17.8187C11.2346 17.4227 10.5133 17.2254 9.66131 17.2254H5.33331V22.3054L9.59598 22.304ZM22.252 22.2374C22.7764 22.7654 23.5631 23.0294 24.612 23.0294C25.3333 23.0294 25.9893 22.832 26.5133 22.5027C27.0386 22.1063 27.3666 21.7103 27.4973 21.3147H30.7106C30.1853 22.8974 29.3986 24.0187 28.3506 24.744C27.3 25.404 26.0546 25.8 24.5466 25.8C23.5819 25.8015 22.6255 25.6224 21.7266 25.272C20.9175 24.9702 20.1962 24.4717 19.628 23.8214C19.0177 23.2152 18.5674 22.467 18.3173 21.644C17.9893 20.7867 17.8573 19.864 17.8573 18.808C17.8573 17.8187 17.9893 16.896 18.3173 16.0374C18.6319 15.2102 19.0992 14.4494 19.6946 13.7947C20.284 13.2014 21.0053 12.6747 21.792 12.344C22.6677 11.9924 23.603 11.8132 24.5466 11.816C25.6613 11.816 26.6453 12.0147 27.4973 12.476C28.3506 12.9374 29.0053 13.4654 29.5293 14.2574C30.0546 14.9827 30.4493 15.84 30.7106 16.764C30.8413 17.6867 30.9066 18.6107 30.8413 19.6654H21.3333C21.3333 20.7214 21.7266 21.7107 22.252 22.2387M26.3826 15.3134C25.924 14.852 25.2026 14.588 24.3493 14.588C23.849 14.5805 23.3542 14.6935 22.9066 14.9174C22.5133 15.116 22.252 15.38 21.9893 15.644C21.7464 15.898 21.5865 16.2198 21.5306 16.5667C21.464 16.8974 21.3986 17.16 21.3986 17.424H27.3C27.1693 16.4347 26.8413 15.776 26.3826 15.3134ZM20.612 8.3867H27.956V10.168H20.6133L20.612 8.3867Z" fill="black"/>
</svg>
