<svg width="310" height="200" viewBox="0 0 337 227" fill="none" xmlns="http://www.w3.org/2000/svg">
<path d="M17.1766 0C7.67891 0 0 7.47058 0 16.7104V75.2896C0 84.5294 7.67891 92 17.1766 92H79.8234C89.3211 92 97 84.5294 97 75.2896V16.7104C97 7.47058 89.3211 0 79.8234 0H17.1766ZM34.7586 23.3937C38.0725 23.3937 40.8211 23.7858 43.0839 24.6115C45.113 25.2822 46.9631 26.3839 48.5 27.8366C49.8021 29.1077 50.8084 30.6359 51.4509 32.3179C52.0572 33.9692 52.3792 35.6596 52.3792 37.4288C52.3792 40.81 51.5709 43.6015 49.9542 45.8032C48.3386 48.0044 46.0758 49.6564 43.4484 50.6C40.6998 51.5834 37.6686 51.9365 34.3547 51.9365C33.3847 51.9365 32.7367 51.9365 32.3328 51.8974C31.9289 51.8584 31.3628 51.8584 30.5952 51.8584V64.4789C30.6353 64.7538 30.4337 64.9905 30.1511 65.0295H22.31C21.9872 65.0295 21.8265 64.8711 21.8265 64.5172V24.0615C21.8265 23.7866 21.9478 23.6281 22.2304 23.6281C22.9178 23.6281 23.5642 23.6281 24.4933 23.5897C25.4633 23.5499 26.4734 23.5514 27.5647 23.5116C28.6559 23.4725 29.8283 23.4718 31.0809 23.4327C32.3343 23.3929 33.5461 23.3937 34.7586 23.3937ZM35.6604 31.137C35.454 31.1332 35.2476 31.1337 35.0413 31.1385C33.9909 31.1385 33.0611 31.1392 32.2927 31.179C31.4848 31.1392 30.9195 31.1783 30.6368 31.2173V44.4276C31.2022 44.4674 31.7266 44.5057 32.2116 44.5057H34.3547C35.9309 44.5057 37.5072 44.2698 39.0023 43.798C40.2959 43.4442 41.4273 42.6967 42.3162 41.714C43.165 40.7306 43.5697 39.3949 43.5697 37.6647C43.6069 36.4364 43.2847 35.2231 42.6406 34.1661C41.9533 33.1443 40.9825 32.357 39.8102 31.925C38.5014 31.409 37.1002 31.1643 35.6604 31.137ZM69.5573 33.1443C71.2147 33.1443 72.9122 33.2608 74.5687 33.4967C75.7812 33.6537 76.9528 33.97 78.0441 34.4027C78.2063 34.4418 78.3677 34.598 78.448 34.7551C78.4889 34.9121 78.5298 35.0698 78.5298 35.2269V41.6359C78.5303 41.7122 78.5122 41.7875 78.4772 41.8557C78.4422 41.924 78.3912 41.9833 78.3283 42.0288C77.9645 42.1077 77.7622 42.1077 77.6008 42.0288C76.3883 41.4 75.0939 40.968 73.7192 40.693C72.2241 40.3783 70.7289 40.1807 69.1936 40.1807C68.385 40.1409 67.5355 40.2603 66.7678 40.4564C66.2419 40.5744 65.7978 40.8501 65.5152 41.243C65.3136 41.5578 65.1923 41.9507 65.1923 42.3045C65.1923 42.6584 65.3545 43.0122 65.597 43.3263C65.9608 43.759 66.445 44.1136 66.9702 44.3893C67.9074 44.8605 68.8649 45.2926 69.84 45.6845C72.0225 46.3922 74.1239 47.3763 76.0639 48.5558C77.3977 49.3814 78.4889 50.4828 79.2566 51.8193C79.9068 53.0732 80.2266 54.4647 80.1872 55.8686C80.22 57.7271 79.6696 59.5511 78.6094 61.0974C77.4824 62.6667 75.9098 63.8825 74.0837 64.5961C72.1028 65.4217 69.6778 65.8545 66.7678 65.8545C64.9082 65.8545 63.0909 65.6974 61.2722 65.3436C59.8467 65.104 58.4603 64.6808 57.1497 64.0852C56.867 63.9282 56.6639 63.6525 56.7041 63.3377V56.4974C56.7041 56.3795 56.7442 56.2217 56.8655 56.1436C56.9867 56.0647 57.108 56.1053 57.2292 56.1834C58.7861 57.0768 60.4774 57.727 62.2414 58.1104C63.7775 58.5033 65.3947 58.6994 67.0118 58.6994C68.5472 58.6994 69.6384 58.5026 70.3659 58.1487C71.0123 57.8738 71.4564 57.2051 71.4564 56.4974C71.4564 55.9475 71.1336 55.4352 70.4864 54.9236C69.84 54.4127 68.5062 53.8237 66.5261 53.0769C64.4942 52.3808 62.5646 51.4291 60.7864 50.2462C59.5199 49.3683 58.4707 48.2267 57.715 46.9045C57.07 45.6628 56.7508 44.2851 56.7859 42.8943C56.7859 41.2039 57.2702 39.5917 58.1591 38.1372C59.1692 36.5648 60.6659 35.3065 62.4043 34.5206C64.3034 33.5771 66.6867 33.1443 69.5573 33.1443Z" fill="#ECECEC"/>
<path d="M201.82 1.46732e-05H139.18C136.923 -0.00289642 134.687 0.427382 132.602 1.2662C130.516 2.10502 128.621 3.33589 127.025 4.88831C125.429 6.44073 124.164 8.28419 123.302 10.3131C122.439 12.342 121.997 14.5164 122 16.7119V75.2881C121.997 77.4836 122.439 79.658 123.302 81.6869C124.164 83.7158 125.429 85.5593 127.025 87.1117C128.621 88.6641 130.516 89.895 132.602 90.7338C134.687 91.5726 136.923 92.0029 139.18 92H201.82C204.077 92.0029 206.313 91.5726 208.398 90.7338C210.484 89.895 212.379 88.6641 213.975 87.1117C215.571 85.5593 216.836 83.7158 217.698 81.6869C218.561 79.658 219.003 77.4836 219 75.2881V16.7119C219.003 14.5164 218.561 12.342 217.698 10.3131C216.836 8.28419 215.571 6.44073 213.975 4.88831C212.379 3.33589 210.484 2.10502 208.398 1.2662C206.313 0.427382 204.077 -0.00289642 201.82 1.46732e-05ZM181.291 64.8718H172.842C172.699 64.8823 172.557 64.8448 172.44 64.7656C172.323 64.6864 172.237 64.5703 172.197 64.4369L168.886 55.0452H153.828L150.797 64.282C150.764 64.4493 150.668 64.5986 150.528 64.7008C150.388 64.803 150.213 64.8508 150.039 64.8349H142.461C142.021 64.8349 141.9 64.599 142.021 64.0977L154.98 27.6811C155.101 27.283 155.222 26.8555 155.382 26.3837C155.547 25.5406 155.629 24.6839 155.624 23.8256C155.613 23.7266 155.64 23.627 155.7 23.5465C155.76 23.466 155.85 23.4104 155.95 23.3907H166.415C166.741 23.3907 166.9 23.5087 166.946 23.7077L181.693 64.201C181.814 64.6359 181.693 64.8349 181.291 64.8349V64.8718ZM195.235 64.4295C195.235 64.8644 195.076 65.0561 194.712 65.0561H186.785C186.701 65.0623 186.616 65.0501 186.537 65.0203C186.458 64.9905 186.386 64.9438 186.328 64.8837C186.27 64.8236 186.227 64.7516 186.201 64.673C186.175 64.5945 186.168 64.5112 186.179 64.4295V34.124C186.179 33.7333 186.346 33.5785 186.71 33.5785H194.75C195.114 33.5785 195.273 33.7702 195.273 34.124L195.235 64.4295ZM194.386 28.8974C193.91 29.3683 193.335 29.7349 192.702 29.9726C192.068 30.2104 191.389 30.3138 190.711 30.276C190.047 30.2902 189.387 30.1756 188.768 29.939C188.15 29.7023 187.587 29.3482 187.111 28.8974C186.181 27.9142 185.688 26.6132 185.74 25.2779C185.711 24.6301 185.824 23.9838 186.071 23.3816C186.318 22.7793 186.693 22.2347 187.172 21.7837C188.14 20.8886 189.428 20.3944 190.764 20.4051C191.443 20.371 192.122 20.4761 192.756 20.7135C193.391 20.951 193.967 21.3156 194.447 21.7837C195.34 22.7363 195.818 23.989 195.781 25.2779C195.808 25.9411 195.698 26.603 195.459 27.2245C195.219 27.8461 194.855 28.4149 194.386 28.8974ZM166.461 47.0615H156.193C156.799 45.4103 157.405 43.5599 157.973 41.5548C158.542 39.5497 159.224 37.6256 159.83 35.7385C160.382 34.0735 160.84 32.3804 161.202 30.6667H161.285C161.565 31.6103 161.853 32.6349 162.172 33.7333C162.49 34.8317 162.861 36.0112 163.263 37.2349C163.665 38.4587 164.021 39.6308 164.437 40.8471C164.854 42.0635 165.195 43.1692 165.529 44.2308C165.862 45.2923 166.218 46.2359 166.461 47.0615Z" fill="#ECECEC"/>
<path fill-rule="evenodd" clip-rule="evenodd" d="M260.727 0C256.291 0 252.036 1.76233 248.899 4.8993C245.762 8.03628 244 12.2909 244 16.7273V75.2727C244 79.7091 245.762 83.9637 248.899 87.1007C252.036 90.2377 256.291 92 260.727 92H319.273C323.709 92 327.964 90.2377 331.101 87.1007C334.238 83.9637 336 79.7091 336 75.2727V16.7273C336 12.2909 334.238 8.03628 331.101 4.8993C327.964 1.76233 323.709 0 319.273 0H260.727ZM302.545 23H310.909V63.94C308.546 64.7596 302.738 66.4073 298.414 66.4073C293.011 66.4073 283.435 63.6264 283.435 50.6585C283.435 39.422 292.789 35.1858 302.545 35.1858V23ZM302.545 42.3367V59.064C299.075 59.064 292.091 58.1733 292.091 50.7004C292.091 43.2275 299.075 42.3367 302.545 42.3367ZM277.455 27.1818H269.091V64.8182H277.455V27.1818Z" fill="#ECECEC"/>
<g clip-path="url(#clip0_46_108)">
<path d="M48.5 130C21.7159 130 0 151.716 0 178.5C0 205.284 21.7159 227 48.5 227C75.2841 227 97 205.284 97 178.5C97 151.716 75.2841 130 48.5 130ZM28.1381 161.04C31.1855 161.04 33.5418 163.259 33.8166 165.89C34.0955 168.246 33.1255 170.324 30.4944 171.573C29.1081 172.264 28.5544 172.268 28.2755 171.851C28.1381 171.573 28.2755 171.298 28.5544 171.019C31.0481 168.941 31.0481 167.276 30.7692 164.924C30.6318 163.396 29.5244 162.426 28.4129 162.426C23.5629 162.426 16.6355 173.234 17.6055 181.135C18.0218 184.183 19.8244 187.788 23.7044 187.788C24.9492 187.788 26.3315 187.371 27.5844 186.818C29.6052 185.751 30.8137 184.918 32.0181 183.584C31.723 180.008 34.8634 175.315 39.4992 175.315C41.5807 175.315 43.2418 176.144 43.3792 177.671C43.654 179.749 41.8555 180.024 41.3018 180.024C40.7481 180.024 39.774 179.886 39.774 179.337C39.6366 178.779 41.0229 179.054 40.8855 177.809C40.744 176.976 39.9155 176.701 39.0829 176.701C36.1729 176.701 34.5118 180.719 34.924 183.213C35.0655 184.324 35.6192 185.431 36.7307 185.431C37.5592 185.431 38.8081 184.179 39.2244 182.38C39.4992 181.135 40.6107 180.303 41.5807 180.303C41.9929 180.303 42.2677 180.44 42.4092 180.994V181.551C42.2718 182.105 41.8555 183.766 41.997 184.183C41.997 184.461 42.1344 184.874 42.684 184.874C43.0559 184.874 44.4462 184.146 45.8244 183.019C46.2973 180.634 46.847 177.772 46.847 177.534C46.9844 176.564 47.4007 175.594 49.3407 175.594C49.757 175.594 50.0318 175.731 50.1692 176.285V176.843L49.6195 179.337C51.4181 176.98 54.0532 175.319 55.7144 175.319C56.4095 175.319 56.9632 175.731 56.9632 176.427C56.9632 176.843 56.9632 177.534 56.6844 178.229C56.1307 179.753 55.4355 182.109 55.0192 184.187C55.0192 184.74 55.1607 185.294 55.8558 185.294C56.551 185.294 58.6244 184.461 60.2855 182.247L60.3138 182.23C60.3057 181.956 60.2855 181.689 60.2855 181.414C60.2855 179.753 60.427 178.367 60.7058 177.397C60.9807 176.289 62.367 175.319 63.1995 175.319C63.6158 175.319 64.0281 175.598 64.0281 176.01C64.0281 176.152 64.0281 176.427 63.8907 176.564C63.337 178.367 62.9207 180.028 62.9207 181.693C62.9207 182.663 63.0581 184.045 63.3329 184.878C63.3329 185.015 63.4744 185.157 63.6158 185.157C63.8907 185.157 65.8307 183.358 67.2129 181.002C65.9681 180.169 65.2729 178.783 65.2729 177.122C65.2729 174.212 67.0755 172.688 68.7407 172.688C70.127 172.688 71.2344 173.658 71.2344 175.598C71.2344 176.843 70.8181 178.225 70.127 179.478H70.5392C70.9788 179.492 71.4165 179.413 71.8234 179.246C72.2302 179.079 72.597 178.827 72.8995 178.508C73.0281 178.299 73.2169 178.134 73.4411 178.035C74.7951 176.317 76.7957 175.044 79.1399 175.044C81.0799 175.044 82.8744 175.873 83.0158 177.397C83.2907 179.478 81.4881 179.894 80.9344 179.894L80.9263 179.886C80.3685 179.886 79.4026 179.745 79.4026 179.191C79.4026 178.637 80.6515 178.916 80.51 177.671C80.3726 176.839 79.54 176.56 78.7074 176.56C75.9348 176.56 74.1403 180.161 74.5526 183.071C74.69 184.183 75.2437 185.427 76.3511 185.427C77.1837 185.427 78.4326 184.183 78.9863 182.38C79.2611 181.273 80.3726 180.303 81.3426 180.303C81.7589 180.303 82.0297 180.44 82.1711 180.994C82.1711 181.273 82.1711 181.826 81.6174 183.629C80.9303 184.874 80.9263 185.569 81.0637 186.123C81.2011 187.23 81.7548 188.063 82.3126 188.479C82.45 188.616 82.5874 188.891 82.5874 188.891C82.5874 189.17 82.45 189.449 82.0337 189.449C81.8963 189.449 81.7589 189.449 81.6174 189.307C79.54 188.479 78.7074 187.093 78.4285 185.706C77.6 186.676 76.63 187.23 75.5185 187.23C73.72 187.23 71.9215 185.569 71.6385 183.487C71.5581 182.602 71.6613 181.709 71.9417 180.864C71.1212 181.39 70.2361 181.685 69.4237 181.685H68.7366C66.93 184.32 64.99 186.123 63.6037 186.951C63.1328 187.201 62.6126 187.345 62.08 187.371C61.8052 187.371 61.3889 187.23 61.2515 186.951C60.8675 186.337 60.621 185.367 60.4714 184.255C58.5274 186.385 55.8437 187.509 54.5989 187.509C53.2126 187.509 52.384 186.676 52.2466 185.286V183.766C52.6589 180.719 53.7703 178.916 53.7703 178.363C53.7665 178.289 53.736 178.22 53.6847 178.168C53.6333 178.116 53.5645 178.085 53.4915 178.08C52.5215 178.08 49.3366 181.41 48.7789 183.629L48.3626 185.427C48.0877 186.676 46.8389 187.509 46.0103 187.509C45.594 187.509 45.3152 187.367 45.1777 186.814V186.26L45.3637 185.318C43.6055 186.571 41.8474 187.371 41.0189 187.371C39.774 187.371 39.0789 186.676 38.9415 185.706C38.1089 186.814 37.1429 187.371 35.894 187.371C34.4714 187.371 33.081 186.401 32.4101 184.975C31.424 186.086 30.2963 187.21 28.9666 188.063C27.0266 189.311 24.8118 190.281 22.1766 190.281C19.8244 190.281 17.7429 189.033 16.6355 187.925C14.9703 186.401 14.0044 184.045 13.8629 181.826C13.0344 175.036 17.1892 166.306 23.5629 162.426C25.0907 161.598 26.6144 161.04 28.1381 161.04ZM67.6252 174.341C67.2048 174.341 66.93 175.036 66.93 175.727C66.93 176.835 67.4837 178.084 68.1789 178.779C68.453 178.024 68.5925 177.226 68.5911 176.423C68.5911 175.036 68.0415 174.341 67.6252 174.341Z" fill="#ECECEC"/>
</g>
<path fill-rule="evenodd" clip-rule="evenodd" d="M157.029 168.061C155.658 168.061 154.301 168.331 153.034 168.855C151.767 169.38 150.617 170.149 149.647 171.118C148.678 172.088 147.909 173.239 147.384 174.505C146.86 175.772 146.59 177.129 146.59 178.5C146.59 179.871 146.86 181.229 147.384 182.495C147.909 183.762 148.678 184.913 149.647 185.882C150.617 186.852 151.767 187.62 153.034 188.145C154.301 188.67 155.658 188.94 157.029 188.94H167.469V168.061H157.029ZM167.469 161.998H157.029C154.26 161.998 151.604 160.898 149.646 158.94C147.688 156.982 146.587 154.326 146.587 151.556C146.587 148.787 147.688 146.131 149.646 144.173C151.604 142.215 154.26 141.115 157.029 141.115H167.469V161.998ZM173.531 141.115V161.998H183.971C186.705 161.944 189.308 160.821 191.223 158.868C193.137 156.916 194.209 154.291 194.209 151.556C194.209 148.822 193.137 146.197 191.223 144.245C189.308 142.292 186.705 141.169 183.971 141.115H173.531ZM183.971 168.056C181.231 168.056 178.6 169.133 176.647 171.055C174.694 172.977 173.575 175.59 173.531 178.33V178.666C173.565 180.723 174.205 182.725 175.373 184.419C176.54 186.113 178.182 187.425 180.092 188.189C182.002 188.953 184.096 189.136 186.11 188.714C188.123 188.292 189.968 187.285 191.411 185.818C192.854 184.352 193.831 182.491 194.221 180.471C194.61 178.451 194.393 176.361 193.599 174.463C192.804 172.565 191.466 170.945 189.753 169.805C188.04 168.665 186.028 168.057 183.971 168.056ZM157.029 195.002C154.963 195.001 152.944 195.613 151.226 196.76C149.508 197.907 148.169 199.538 147.378 201.447C146.586 203.355 146.379 205.455 146.782 207.481C147.184 209.507 148.178 211.368 149.639 212.829C151.099 214.29 152.96 215.285 154.986 215.689C157.012 216.092 159.112 215.885 161.021 215.095C162.929 214.305 164.561 212.966 165.708 211.249C166.856 209.531 167.469 207.512 167.469 205.446V195.002H157.029Z" fill="#ECECEC"/>
<path d="M244 153.12C244 140.351 254.351 130 267.12 130H313.361C326.13 130 336.481 140.351 336.481 153.12V199.361C336.481 212.13 326.13 222.481 313.361 222.481H267.12C254.351 222.481 244 212.13 244 199.361V153.12Z" fill="#ECECEC"/>
<path d="M305.484 147.629H297.089L304.085 159.921L288.693 147.629H280.298L287.994 162.653L271.903 147.629H263.508L271.903 166.753L263.508 204.996H271.903L287.994 164.021L280.298 204.996H288.693L304.085 161.289L297.089 204.996H305.484L320.875 157.189L305.484 147.629Z" fill="#5AB2F0"/>
<defs>
<clipPath id="clip0_46_108">
<rect width="97" height="97" fill="white" transform="translate(0 130)"/>
</clipPath>
</defs>
</svg>
